<svg width="182" height="28" viewBox="0 0 182 28" fill="none" xmlns="http://www.w3.org/2000/svg">
<rect x="100.801" width="80.5" height="28" rx="14" fill="white"/>
<path d="M113.261 18.64C115.291 18.64 116.803 17.142 116.803 15C116.803 12.858 115.291 11.36 113.261 11.36C111.231 11.36 109.719 12.858 109.719 15C109.719 17.142 111.231 18.64 113.261 18.64ZM113.261 17.352C112.043 17.352 111.119 16.414 111.119 15C111.119 13.586 112.043 12.648 113.261 12.648C114.479 12.648 115.403 13.586 115.403 15C115.403 16.414 114.479 17.352 113.261 17.352ZM120.947 18.5V12.788H123.215V11.5H117.279V12.788H119.547V18.5H120.947ZM127.393 10.436C127.393 11.836 128.163 12.662 129.115 13.32L130.221 14.09C130.935 14.58 131.467 15.14 131.467 16.008C131.467 16.848 130.921 17.352 130.053 17.352C129.199 17.352 128.639 16.736 128.639 15.742V15.056H127.239V15.84C127.239 17.646 128.499 18.64 130.053 18.64C131.607 18.64 132.867 17.716 132.867 15.84C132.867 14.482 132.097 13.684 131.159 13.026L130.025 12.214C129.339 11.752 128.793 11.262 128.793 10.436C128.793 9.596 129.297 9.148 130.039 9.148C130.823 9.148 131.313 9.624 131.313 10.702V11.304H132.713V10.66C132.713 8.77 131.537 7.86 130.039 7.86C128.583 7.86 127.393 8.602 127.393 10.436ZM135.819 8H134.419V18.5H135.819V14.818L139.165 18.5H140.943L137.401 14.692L140.691 11.5L138.829 11.5L135.819 14.608V8ZM145.163 19.284L147.921 11.5H146.521L144.505 17.366L142.475 11.5H141.075L143.847 19.27C143.399 20.362 142.923 20.88 142.041 20.88C141.705 20.88 141.383 20.81 141.117 20.726V21.958C141.383 22.042 141.775 22.112 142.167 22.112C143.889 22.112 144.575 20.95 145.163 19.284ZM155.347 15.476C155.361 15.322 155.375 15.168 155.375 15C155.375 12.858 153.919 11.36 151.931 11.36C149.943 11.36 148.487 12.858 148.487 15C148.487 17.142 149.943 18.64 151.931 18.64C153.541 18.64 154.759 17.842 155.193 16.4H153.681C153.401 17.03 152.841 17.408 151.987 17.408C150.811 17.408 150.027 16.694 149.859 15.476H155.347ZM151.931 12.592C153.051 12.592 153.821 13.292 153.989 14.468H149.873C150.041 13.292 150.797 12.592 151.931 12.592ZM161.688 14.678V18.5H163.088V14.398C163.088 12.34 161.954 11.36 160.428 11.36C159.504 11.36 158.734 11.794 158.3 12.606V11.5H156.9V18.5H158.3V14.678C158.3 13.292 158.944 12.592 159.994 12.592C161.044 12.592 161.688 13.292 161.688 14.678ZM167.896 18.64C168.834 18.64 169.646 18.192 170.192 17.45V18.556C170.192 19.9 169.436 20.852 168.148 20.852C167.056 20.852 166.3 20.166 166.118 19.116H164.704C164.956 20.922 166.314 22.14 168.148 22.14C170.066 22.14 171.592 20.684 171.592 18.556V11.5H170.192V12.55C169.646 11.808 168.834 11.36 167.896 11.36C165.978 11.36 164.536 12.858 164.536 15C164.536 17.142 165.978 18.64 167.896 18.64ZM168.064 17.352C166.846 17.352 165.936 16.414 165.936 15C165.936 13.586 166.846 12.648 168.064 12.648C169.282 12.648 170.192 13.586 170.192 15C170.192 16.414 169.282 17.352 168.064 17.352Z" fill="#04121B"/>
<path d="M2.46522 20.0058C1.03058 20.8345 0 20.1439 0 18.9156C0 17.608 0 13.6846 0 13.6846C0 13.6846 0 9.76115 0 8.45355C0 7.22524 1.02994 6.53468 2.46522 7.36335C4.69964 8.65369 11.4023 12.526 11.4023 12.526C12.2935 13.0407 12.2935 14.3278 11.4023 14.8426C11.4023 14.8432 4.69964 18.7155 2.46522 20.0058Z" fill="#00C1FF"/>
<path d="M9.84217 20.0046C8.40754 20.8333 7.37695 20.1427 7.37695 18.9144C7.37695 17.6068 7.37695 13.6834 7.37695 13.6834C7.37695 13.6834 7.37695 9.75993 7.37695 8.45233C7.37695 7.22402 8.4069 6.53345 9.84217 7.36213C12.0274 8.62433 18.5829 12.4116 18.5829 12.4116C19.5617 12.9768 19.5617 14.3899 18.5829 14.9552C18.5823 14.9552 12.0274 18.7424 9.84217 20.0046Z" fill="#BCEC30"/>
<mask id="mask0_1_15394" style="mask-type:alpha" maskUnits="userSpaceOnUse" x="7" y="7" width="13" height="14">
<path d="M9.84217 20.0046C8.40754 20.8333 7.37695 20.1427 7.37695 18.9144C7.37695 17.6068 7.37695 13.6834 7.37695 13.6834C7.37695 13.6834 7.37695 9.75993 7.37695 8.45233C7.37695 7.22402 8.4069 6.53345 9.84217 7.36213C12.0274 8.62433 18.5829 12.4116 18.5829 12.4116C19.5617 12.9768 19.5617 14.3899 18.5829 14.9552C18.5823 14.9552 12.0274 18.7424 9.84217 20.0046Z" fill="#6FE4FF"/>
</mask>
<g mask="url(#mask0_1_15394)">
<g filter="url(#filter0_f_1_15394)">
<path d="M2.46442 20.0053C1.02979 20.834 -0.000793457 20.1434 -0.000793457 18.9151C-0.000793457 17.6075 -0.000793457 13.6841 -0.000793457 13.6841C-0.000793457 13.6841 -0.000793457 9.76066 -0.000793457 8.45306C-0.000793457 7.22475 1.02915 6.53419 2.46442 7.36287C4.69884 8.6532 11.4015 12.5255 11.4015 12.5255C12.2927 13.0402 12.2927 14.3273 11.4015 14.8421C11.4015 14.8427 4.69884 18.715 2.46442 20.0053Z" fill="#99D100"/>
</g>
</g>
<path d="M24.1127 16.0186L24.3626 15.4495C24.533 15.0625 24.8398 14.9601 25.226 15.2446C25.9644 15.7909 27.1799 16.1893 28.8044 16.1893C30.1903 16.1893 30.7811 15.8364 30.7811 15.4153C30.7811 14.9373 30.2926 14.8121 29.486 14.7097L27.6457 14.4706C25.4305 14.1747 24.3172 13.378 24.3172 11.9894C24.3172 10.4984 25.5327 9.3147 28.35 9.3147C29.9177 9.3147 30.9287 9.55371 31.5876 9.80411C32.3147 10.0887 32.4169 10.3277 32.4169 10.9195V11.6935C32.4169 12.1715 32.2465 12.3309 31.7808 12.3309H31.2582C30.7811 12.3309 30.622 12.1601 30.622 11.6935V11.4431C30.3153 11.3407 29.5542 11.1927 28.6681 11.1927C27.1118 11.1927 26.362 11.4772 26.362 11.9553C26.362 12.3081 26.8164 12.513 27.6457 12.6268L29.4519 12.8658C31.6331 13.139 32.7918 13.7991 32.7918 15.3926C32.7918 17.0088 31.2582 18.0445 28.5204 18.0445C26.5097 18.0445 24.8966 17.4071 24.249 16.8153C24.0218 16.5876 23.9877 16.3031 24.1127 16.0186Z" fill="black"/>
<path d="M44.0597 17.9073H43.1282C42.6738 17.9073 42.5261 17.839 42.2989 17.4976L40.5495 14.9139C40.2995 14.5611 40.1064 14.47 39.5838 14.47H37.8344V17.27C37.8344 17.748 37.664 17.9073 37.1982 17.9073H36.528C36.0509 17.9073 35.8918 17.7366 35.8918 17.27V8.87021H35.267C34.7899 8.87021 34.6309 8.69949 34.6309 8.23283V7.66375C34.6309 7.18571 34.8013 7.02637 35.267 7.02637H37.2096C37.6867 7.02637 37.8458 7.19709 37.8458 7.66375V12.5807H39.4134C39.936 12.5807 40.1178 12.501 40.3791 12.1368L41.8445 9.87181C42.0831 9.51897 42.2307 9.45068 42.6851 9.45068H43.6167C44.1279 9.45068 44.2188 9.86043 43.9348 10.2816L42.2989 12.7628C42.1285 13.0018 41.924 13.2522 41.7309 13.4571C41.9354 13.6278 42.2194 13.9123 42.333 14.0831L44.3778 17.0992C44.6618 17.4976 44.5596 17.9073 44.0597 17.9073Z" fill="black"/>
<path d="M47.3834 19.4549V18.8971C47.3834 18.4191 47.5538 18.2598 48.0195 18.2598H48.8261C49.3146 18.2598 49.5532 18.1573 49.7349 17.7704L49.8372 17.5541L45.9747 10.2356C45.7362 9.79174 45.9293 9.46167 46.4291 9.46167H47.3039C47.7583 9.46167 47.9627 9.54134 48.1331 9.87141L49.7463 13.1949C50.1212 13.9575 50.5415 14.8339 50.8709 15.5964C51.2117 14.8566 51.598 14.003 51.9615 13.2632L53.6087 9.87141C53.7564 9.55272 53.9836 9.46167 54.438 9.46167H55.3127C55.8239 9.46167 56.0057 9.80312 55.7671 10.2356L51.3708 18.6012C50.8596 19.5687 50.2802 20.1036 48.9624 20.1036H47.9968C47.5424 20.1036 47.3834 19.9329 47.3834 19.4549Z" fill="black"/>
<path d="M67.6476 13.6853C67.6476 16.3714 65.6596 18.0445 62.9786 18.0445C61.8199 18.0445 60.9338 17.76 60.309 17.4071V19.7062C60.309 20.1843 60.1386 20.3436 59.6728 20.3436H59.0026C58.5255 20.3436 58.3664 20.1729 58.3664 19.7062V11.3065H57.7416C57.2645 11.3065 57.1055 11.1358 57.1055 10.6691V10.1C57.1055 9.622 57.2759 9.46266 57.7416 9.46266H59.3775C59.8546 9.46266 60.0136 9.63339 60.0136 10.1V10.1456C60.6498 9.72444 61.6154 9.3147 62.9786 9.3147C65.6596 9.32608 67.6476 10.9992 67.6476 13.6853ZM65.6255 13.6853C65.6255 12.1146 64.3645 11.2382 62.7969 11.2382C61.6722 11.2382 60.752 11.7162 60.3204 12.1032V15.2787C60.7634 15.6657 61.6722 16.1438 62.7969 16.1438C64.3645 16.1324 65.6255 15.256 65.6255 13.6853Z" fill="black"/>
<path d="M78.2318 13.0248C78.2318 13.5028 78.0614 13.6621 77.5957 13.6621H76.9254C76.4483 13.6621 76.2893 13.5256 76.2893 13.0248C76.2893 11.7728 75.8121 11.2151 74.6761 11.2151C73.5969 11.2151 72.6995 11.8866 72.1996 12.7061V17.2702C72.1996 17.7482 72.0292 17.9075 71.5635 17.9075H70.8932C70.4161 17.9075 70.2571 17.7368 70.2571 17.2702V11.3061H69.6323C69.1551 11.3061 68.9961 11.1354 68.9961 10.6687V10.0996C68.9961 9.62161 69.1665 9.46226 69.6323 9.46226H71.2681C71.7452 9.46226 71.9043 9.63299 71.9043 10.0996V10.646C72.5064 9.97444 73.4265 9.32568 74.9942 9.32568C77.2889 9.32568 78.2318 10.6915 78.2318 13.0248Z" fill="black"/>
<path d="M79.4355 13.6849C79.4355 11.1809 81.5485 9.32568 84.3545 9.32568C87.1377 9.32568 89.2393 11.1809 89.2393 13.6849C89.2393 16.2003 87.1263 18.0555 84.3545 18.0555C81.5485 18.0555 79.4355 16.2003 79.4355 13.6849ZM87.3081 13.6849C87.3081 12.228 86.0244 11.1695 84.3545 11.1695C82.6504 11.1695 81.3668 12.2394 81.3668 13.6849C81.3668 15.1531 82.6504 16.223 84.3545 16.223C86.0357 16.223 87.3081 15.1531 87.3081 13.6849Z" fill="black"/>
<defs>
<filter id="filter0_f_1_15394" x="-1.02366" y="5.97786" width="14.1164" height="15.4124" filterUnits="userSpaceOnUse" color-interpolation-filters="sRGB">
<feFlood flood-opacity="0" result="BackgroundImageFix"/>
<feBlend mode="normal" in="SourceGraphic" in2="BackgroundImageFix" result="shape"/>
<feGaussianBlur stdDeviation="0.511435" result="effect1_foregroundBlur_1_15394"/>
</filter>
</defs>
</svg>
