<svg width="246" height="37" viewBox="0 0 246 37" fill="none" xmlns="http://www.w3.org/2000/svg">
<path d="M6.78897 35.8196C2.83767 38.102 -0.000793457 36.2 -0.000793457 32.8169C-0.000793457 29.2155 -0.000793457 18.4095 -0.000793457 18.4095C-0.000793457 18.4095 -0.000793457 7.60343 -0.000793457 4.00201C-0.000793457 0.618957 2.83591 -1.28302 6.78897 0.999352C12.9431 4.55323 31.4036 15.2184 31.4036 15.2184C33.8582 16.6361 33.8582 20.1811 31.4036 21.5988C31.4036 21.6006 12.9431 32.2657 6.78897 35.8196Z" fill="#00C1FF"/>
<path d="M27.1099 35.8186C23.1586 38.101 20.3201 36.199 20.3201 32.816C20.3201 29.2145 20.3201 18.4085 20.3201 18.4085C20.3201 18.4085 20.3201 7.60246 20.3201 4.00103C20.3201 0.617981 23.1568 -1.284 27.1099 0.998375C33.1284 4.47476 51.184 14.9057 51.184 14.9057C53.8798 16.4625 53.8798 20.3545 51.184 21.9113C51.1822 21.9113 33.1284 32.3422 27.1099 35.8186Z" fill="#BCEC30"/>
<mask id="mask0_1_15281" style="mask-type:alpha" maskUnits="userSpaceOnUse" x="20" y="0" width="34" height="37">
<path d="M27.1099 35.8186C23.1586 38.101 20.3201 36.199 20.3201 32.816C20.3201 29.2145 20.3201 18.4085 20.3201 18.4085C20.3201 18.4085 20.3201 7.60246 20.3201 4.00103C20.3201 0.617981 23.1568 -1.284 27.1099 0.998375C33.1284 4.47476 51.184 14.9057 51.184 14.9057C53.8798 16.4625 53.8798 20.3545 51.184 21.9113C51.1822 21.9113 33.1284 32.3422 27.1099 35.8186Z" fill="#6FE4FF"/>
</mask>
<g mask="url(#mask0_1_15281)">
<g filter="url(#filter0_f_1_15281)">
<path d="M6.79007 35.8206C2.83877 38.1029 0.000305176 36.201 0.000305176 32.8179C0.000305176 29.2165 0.000305176 18.4104 0.000305176 18.4104C0.000305176 18.4104 0.000305176 7.60441 0.000305176 4.00298C0.000305176 0.619934 2.837 -1.28204 6.79007 1.00033C12.9442 4.5542 31.4047 15.2194 31.4047 15.2194C33.8593 16.637 33.8593 20.1821 31.4047 21.5998C31.4047 21.6015 12.9442 32.2667 6.79007 35.8206Z" fill="#99D100"/>
</g>
</g>
<path d="M66.4117 24.8409L67.1001 23.2735C67.5694 22.2077 68.4142 21.9255 69.478 22.7092C71.5117 24.2139 74.8596 25.3111 79.3338 25.3111C83.1509 25.3111 84.7779 24.3393 84.7779 23.1795C84.7779 21.8628 83.4325 21.518 81.2111 21.2359L76.1424 20.5776C70.0412 19.7625 66.9749 17.5682 66.9749 13.7437C66.9749 9.63714 70.3228 6.37695 78.0823 6.37695C82.4 6.37695 85.1847 7.03526 86.9994 7.72492C89.0018 8.50861 89.2834 9.16692 89.2834 10.797V12.9287C89.2834 14.2453 88.8141 14.6842 87.5313 14.6842H86.092C84.7779 14.6842 84.3399 14.2139 84.3399 12.9287V12.239C83.4951 11.9569 81.3988 11.5494 78.9583 11.5494C74.6718 11.5494 72.6068 12.3331 72.6068 13.6497C72.6068 14.6215 73.8583 15.1857 76.1424 15.4992L81.1172 16.1575C87.1245 16.9099 90.3159 18.7281 90.3159 23.1168C90.3159 27.5682 86.092 30.4208 78.5516 30.4208C73.0136 30.4208 68.5706 28.6654 66.7872 27.0353C66.1614 26.4083 66.0676 25.6246 66.4117 24.8409Z" fill="black"/>
<path d="M121.351 30.0424H118.786C117.534 30.0424 117.128 29.8543 116.502 28.9139L111.683 21.7979C110.995 20.8261 110.463 20.5753 109.024 20.5753H104.206V28.2869C104.206 29.6035 103.736 30.0424 102.453 30.0424H100.607C99.2933 30.0424 98.8553 29.5722 98.8553 28.2869V5.1521H97.1344C95.8203 5.1521 95.3823 4.68188 95.3823 3.39662V1.82922C95.3823 0.512602 95.8516 0.0737305 97.1344 0.0737305H102.485C103.799 0.0737305 104.237 0.54395 104.237 1.82922V15.3715H108.555C109.994 15.3715 110.494 15.1521 111.214 14.149L115.25 7.91072C115.907 6.93894 116.314 6.75085 117.566 6.75085H120.131C121.539 6.75085 121.79 7.87937 121.007 9.03925L116.502 15.8731C116.032 16.5314 115.469 17.2211 114.937 17.7853C115.501 18.2556 116.283 19.0393 116.596 19.5095L122.228 27.8167C123.01 28.9139 122.728 30.0424 121.351 30.0424Z" fill="black"/>
<path d="M130.507 34.3048V32.7687C130.507 31.4521 130.976 31.0132 132.259 31.0132H134.48C135.826 31.0132 136.483 30.7311 136.983 29.6653L137.265 29.0697L126.627 8.91291C125.97 7.69034 126.502 6.78125 127.879 6.78125H130.288C131.539 6.78125 132.102 7.00069 132.572 7.90978L137.015 17.0634C138.047 19.1637 139.205 21.5775 140.112 23.6778C141.051 21.6402 142.115 19.2891 143.116 17.2515L147.653 7.90978C148.059 7.03203 148.685 6.78125 149.937 6.78125H152.346C153.754 6.78125 154.255 7.72169 153.597 8.91291L141.489 31.9537C140.081 34.6182 138.485 36.0916 134.856 36.0916H132.196C130.945 36.0916 130.507 35.6214 130.507 34.3048Z" fill="black"/>
<path d="M186.316 18.4146C186.316 25.8127 180.841 30.4208 173.457 30.4208C170.265 30.4208 167.825 29.6371 166.104 28.6654V34.9976C166.104 36.3143 165.635 36.7531 164.352 36.7531H162.506C161.192 36.7531 160.754 36.2829 160.754 34.9976V11.8628H159.033C157.719 11.8628 157.281 11.3926 157.281 10.1074V8.53996C157.281 7.22335 157.75 6.78448 159.033 6.78448H163.538C164.852 6.78448 165.29 7.2547 165.29 8.53996V8.66535C167.043 7.50548 169.702 6.37695 173.457 6.37695C180.841 6.4083 186.316 11.0165 186.316 18.4146ZM180.747 18.4146C180.747 14.0886 177.274 11.6748 172.956 11.6748C169.859 11.6748 167.324 12.9914 166.135 14.0572V22.8033C167.355 23.8691 169.859 25.1857 172.956 25.1857C177.274 25.1544 180.747 22.7406 180.747 18.4146Z" fill="black"/>
<path d="M215.463 16.5953C215.463 17.9119 214.994 18.3508 213.711 18.3508H211.865C210.551 18.3508 210.113 17.9746 210.113 16.5953C210.113 13.147 208.799 11.611 205.67 11.611C202.697 11.611 200.226 13.4605 198.849 15.7176V28.2881C198.849 29.6047 198.38 30.0436 197.097 30.0436H195.251C193.937 30.0436 193.499 29.5734 193.499 28.2881V11.8618H191.778C190.464 11.8618 190.026 11.3916 190.026 10.1063V8.53889C190.026 7.22227 190.495 6.7834 191.778 6.7834H196.283C197.597 6.7834 198.035 7.25362 198.035 8.53889V10.0436C199.694 8.19406 202.228 6.40723 206.546 6.40723C212.866 6.40723 215.463 10.169 215.463 16.5953Z" fill="black"/>
<path d="M218.784 18.4135C218.784 11.5169 224.604 6.40723 232.332 6.40723C239.998 6.40723 245.786 11.5169 245.786 18.4135C245.786 25.3414 239.966 30.4511 232.332 30.4511C224.604 30.4511 218.784 25.3414 218.784 18.4135ZM240.467 18.4135C240.467 14.401 236.932 11.4856 232.332 11.4856C227.639 11.4856 224.103 14.4323 224.103 18.4135C224.103 22.4574 227.639 25.4041 232.332 25.4041C236.963 25.4041 240.467 22.4574 240.467 18.4135Z" fill="black"/>
<defs>
<filter id="filter0_f_1_15281" x="-2.81691" y="-2.81429" width="38.8798" height="42.4494" filterUnits="userSpaceOnUse" color-interpolation-filters="sRGB">
<feFlood flood-opacity="0" result="BackgroundImageFix"/>
<feBlend mode="normal" in="SourceGraphic" in2="BackgroundImageFix" result="shape"/>
<feGaussianBlur stdDeviation="1.40861" result="effect1_foregroundBlur_1_15281"/>
</filter>
</defs>
</svg>
