<svg width="259" height="40" viewBox="0 0 259 40" fill="none" xmlns="http://www.w3.org/2000/svg">
<rect x="144" width="115" height="40" rx="20" fill="#F4F5F6"/>
<path d="M161.8 26.2C164.7 26.2 166.86 24.06 166.86 21C166.86 17.94 164.7 15.8 161.8 15.8C158.9 15.8 156.74 17.94 156.74 21C156.74 24.06 158.9 26.2 161.8 26.2ZM161.8 24.36C160.06 24.36 158.74 23.02 158.74 21C158.74 18.98 160.06 17.64 161.8 17.64C163.54 17.64 164.86 18.98 164.86 21C164.86 23.02 163.54 24.36 161.8 24.36ZM172.78 26V17.84H176.02V16H167.54V17.84H170.78V26H172.78ZM181.989 14.48C181.989 16.48 183.089 17.66 184.449 18.6L186.029 19.7C187.049 20.4 187.809 21.2 187.809 22.44C187.809 23.64 187.029 24.36 185.789 24.36C184.569 24.36 183.769 23.48 183.769 22.06V21.08H181.769V22.2C181.769 24.78 183.569 26.2 185.789 26.2C188.009 26.2 189.809 24.88 189.809 22.2C189.809 20.26 188.709 19.12 187.369 18.18L185.749 17.02C184.769 16.36 183.989 15.66 183.989 14.48C183.989 13.28 184.709 12.64 185.769 12.64C186.889 12.64 187.589 13.32 187.589 14.86V15.72H189.589V14.8C189.589 12.1 187.909 10.8 185.769 10.8C183.689 10.8 181.989 11.86 181.989 14.48ZM194.026 11H192.026V26H194.026V20.74L198.806 26H201.346L196.286 20.56L200.986 16H198.326L194.026 20.44V11ZM207.374 27.12L211.314 16H209.314L206.434 24.38L203.534 16H201.534L205.494 27.1C204.854 28.66 204.174 29.4 202.914 29.4C202.434 29.4 201.974 29.3 201.594 29.18V30.94C201.974 31.06 202.534 31.16 203.094 31.16C205.554 31.16 206.534 29.5 207.374 27.12ZM221.924 21.68C221.944 21.46 221.964 21.24 221.964 21C221.964 17.94 219.884 15.8 217.044 15.8C214.204 15.8 212.124 17.94 212.124 21C212.124 24.06 214.204 26.2 217.044 26.2C219.344 26.2 221.084 25.06 221.704 23H219.544C219.144 23.9 218.344 24.44 217.124 24.44C215.444 24.44 214.324 23.42 214.084 21.68H221.924ZM217.044 17.56C218.644 17.56 219.744 18.56 219.984 20.24L214.104 20.24C214.344 18.56 215.424 17.56 217.044 17.56ZM230.982 20.54V26H232.982V20.14C232.982 17.2 231.362 15.8 229.182 15.8C227.862 15.8 226.762 16.42 226.142 17.58V16H224.142V26H226.142V20.54C226.142 18.56 227.062 17.56 228.562 17.56C230.062 17.56 230.982 18.56 230.982 20.54ZM239.851 26.2C241.191 26.2 242.351 25.56 243.131 24.5V26.08C243.131 28 242.051 29.36 240.211 29.36C238.651 29.36 237.571 28.38 237.311 26.88H235.291C235.651 29.46 237.591 31.2 240.211 31.2C242.951 31.2 245.131 29.12 245.131 26.08V16H243.131V17.5C242.351 16.44 241.191 15.8 239.851 15.8C237.111 15.8 235.051 17.94 235.051 21C235.051 24.06 237.111 26.2 239.851 26.2ZM240.091 24.36C238.351 24.36 237.051 23.02 237.051 21C237.051 18.98 238.351 17.64 240.091 17.64C241.831 17.64 243.131 18.98 243.131 21C243.131 23.02 241.831 24.36 240.091 24.36Z" fill="#04121B"/>
<path d="M3.52174 28.5787C1.47226 29.7626 0 28.776 0 27.0213C0 25.1533 0 19.5484 0 19.5484C0 19.5484 0 13.9435 0 12.0755C0 10.3208 1.47135 9.33424 3.52174 10.5181C6.71377 12.3614 16.2889 17.8932 16.2889 17.8932C17.5621 18.6286 17.5621 20.4673 16.2889 21.2026C16.2889 21.2036 6.71377 26.7354 3.52174 28.5787Z" fill="#00C1FF"/>
<path d="M14.0609 28.578C12.0114 29.7618 10.5392 28.7753 10.5392 27.0206C10.5392 25.1526 10.5392 19.5477 10.5392 19.5477C10.5392 19.5477 10.5392 13.9428 10.5392 12.0748C10.5392 10.32 12.0105 9.33351 14.0609 10.5173C17.1826 12.3205 26.5477 17.7308 26.5477 17.7308C27.946 18.5383 27.946 20.557 26.5477 21.3645C26.5468 21.3645 17.1826 26.7749 14.0609 28.578Z" fill="#BCEC30"/>
<mask id="mask0_1_15167" style="mask-type:alpha" maskUnits="userSpaceOnUse" x="10" y="10" width="18" height="20">
<path d="M14.0609 28.578C12.0114 29.7618 10.5392 28.7753 10.5392 27.0206C10.5392 25.1526 10.5392 19.5477 10.5392 19.5477C10.5392 19.5477 10.5392 13.9428 10.5392 12.0748C10.5392 10.32 12.0105 9.33351 14.0609 10.5173C17.1826 12.3205 26.5478 17.7308 26.5478 17.7308C27.946 18.5383 27.946 20.557 26.5478 21.3645C26.5468 21.3645 17.1826 26.7749 14.0609 28.578Z" fill="#6FE4FF"/>
</mask>
<g mask="url(#mask0_1_15167)">
<g filter="url(#filter0_f_1_15167)">
<path d="M3.52222 28.579C1.47275 29.7628 0.000488281 28.7763 0.000488281 27.0215C0.000488281 25.1535 0.000488281 19.5486 0.000488281 19.5486C0.000488281 19.5486 0.000488281 13.9437 0.000488281 12.0757C0.000488281 10.321 1.47184 9.33448 3.52222 10.5183C6.71426 12.3616 16.2894 17.8935 16.2894 17.8935C17.5626 18.6288 17.5626 20.4676 16.2894 21.2029C16.2894 21.2038 6.71426 26.7356 3.52222 28.579Z" fill="#99D100"/>
</g>
</g>
<path d="M34.4464 22.8836L34.8034 22.0706C35.0469 21.5178 35.485 21.3714 36.0368 21.7779C37.0917 22.5584 38.8282 23.1275 41.1488 23.1275C43.1287 23.1275 43.9726 22.6234 43.9726 22.0218C43.9726 21.3389 43.2748 21.1601 42.1226 21.0137L39.4935 20.6723C36.3289 20.2495 34.7385 19.1113 34.7385 17.1277C34.7385 14.9976 36.475 13.3066 40.4997 13.3066C42.7393 13.3066 44.1836 13.6481 45.1249 14.0058C46.1635 14.4123 46.3096 14.7538 46.3096 15.5993V16.7049C46.3096 17.3878 46.0661 17.6155 45.4008 17.6155H44.6542C43.9726 17.6155 43.7454 17.3716 43.7454 16.7049V16.3472C43.3073 16.2009 42.2199 15.9895 40.9541 15.9895C38.7308 15.9895 37.6597 16.396 37.6597 17.0789C37.6597 17.5829 38.3088 17.8756 39.4935 18.0382L42.0739 18.3797C45.1898 18.7699 46.8451 19.7129 46.8451 21.9893C46.8451 24.2982 44.6542 25.7778 40.7431 25.7778C37.8707 25.7778 35.5662 24.8673 34.6412 24.0218C34.3166 23.6966 34.2679 23.2901 34.4464 22.8836Z" fill="black"/>
<path d="M62.9426 25.5818H61.6119C60.9627 25.5818 60.7518 25.4843 60.4272 24.9965L57.928 21.3055C57.5709 20.8015 57.2951 20.6714 56.5485 20.6714H54.0493V24.6713C54.0493 25.3542 53.8059 25.5818 53.1405 25.5818H52.183C51.5014 25.5818 51.2742 25.3379 51.2742 24.6713V12.6717H50.3816C49.7 12.6717 49.4728 12.4278 49.4728 11.7611V10.9481C49.4728 10.2652 49.7163 10.0376 50.3816 10.0376H53.1567C53.8384 10.0376 54.0656 10.2815 54.0656 10.9481V17.9723H56.3051C57.0516 17.9723 57.3113 17.8585 57.6845 17.3382L59.778 14.1025C60.1188 13.5985 60.3298 13.5009 60.979 13.5009H62.3097C63.04 13.5009 63.1698 14.0863 62.7641 14.6879L60.4272 18.2325C60.1838 18.5739 59.8916 18.9316 59.6158 19.2243C59.9079 19.4682 60.3136 19.8747 60.4759 20.1186L63.397 24.4274C63.8027 24.9965 63.6567 25.5818 62.9426 25.5818Z" fill="black"/>
<path d="M67.6916 27.7926V26.9959C67.6916 26.313 67.935 26.0853 68.6004 26.0853H69.7526C70.4504 26.0853 70.7912 25.939 71.0509 25.3862L71.1969 25.0772L65.6792 14.6223C65.3384 13.9881 65.6143 13.5166 66.3283 13.5166H67.578C68.2271 13.5166 68.5192 13.6304 68.7626 14.1019L71.0671 18.8498C71.6027 19.9392 72.2031 21.1912 72.6738 22.2806C73.1606 21.2237 73.7124 20.0042 74.2317 18.9473L76.5849 14.1019C76.7958 13.6467 77.1204 13.5166 77.7696 13.5166H79.0192C79.7495 13.5166 80.0091 14.0044 79.6683 14.6223L73.3878 26.5731C72.6575 27.9552 71.8299 28.7194 69.9473 28.7194H68.5679C67.9188 28.7194 67.6916 28.4755 67.6916 27.7926Z" fill="black"/>
<path d="M96.6386 19.5504C96.6386 23.3876 93.7986 25.7778 89.9686 25.7778C88.3133 25.7778 87.0475 25.3713 86.1549 24.8673V28.1517C86.1549 28.8346 85.9115 29.0623 85.2461 29.0623H84.2886C83.607 29.0623 83.3798 28.8184 83.3798 28.1517V16.1521H82.4872C81.8056 16.1521 81.5784 15.9082 81.5784 15.2415V14.4286C81.5784 13.7457 81.8219 13.518 82.4872 13.518H84.8242C85.5058 13.518 85.733 13.7619 85.733 14.4286V14.4936C86.6418 13.892 88.0212 13.3066 89.9686 13.3066C93.7986 13.3229 96.6386 15.7131 96.6386 19.5504ZM93.7499 19.5504C93.7499 17.3065 91.9485 16.0545 89.709 16.0545C88.1024 16.0545 86.7878 16.7374 86.1711 17.2903V21.8267C86.8041 22.3795 88.1024 23.0624 89.709 23.0624C91.9485 23.0462 93.7499 21.7942 93.7499 19.5504Z" fill="black"/>
<path d="M111.758 18.6069C111.758 19.2898 111.514 19.5174 110.849 19.5174H109.892C109.21 19.5174 108.983 19.3223 108.983 18.6069C108.983 16.8183 108.301 16.0216 106.678 16.0216C105.137 16.0216 103.854 16.9809 103.14 18.1516V24.6718C103.14 25.3547 102.897 25.5823 102.232 25.5823H101.274C100.592 25.5823 100.365 25.3384 100.365 24.6718V16.1517H99.4727C98.7911 16.1517 98.5639 15.9078 98.5639 15.2411V14.4282C98.5639 13.7453 98.8073 13.5176 99.4727 13.5176H101.81C102.491 13.5176 102.718 13.7615 102.718 14.4282V15.2086C103.579 14.2493 104.893 13.3225 107.133 13.3225C110.411 13.3225 111.758 15.2737 111.758 18.6069Z" fill="black"/>
<path d="M113.48 19.55C113.48 15.9728 116.499 13.3225 120.507 13.3225C124.483 13.3225 127.486 15.9728 127.486 19.55C127.486 23.1433 124.467 25.7937 120.507 25.7937C116.499 25.7937 113.48 23.1433 113.48 19.55ZM124.727 19.55C124.727 17.4687 122.893 15.9566 120.507 15.9566C118.073 15.9566 116.239 17.485 116.239 19.55C116.239 21.6475 118.073 23.1759 120.507 23.1759C122.909 23.1759 124.727 21.6475 124.727 19.55Z" fill="black"/>
<defs>
<filter id="filter0_f_1_15167" x="-1.46075" y="8.53973" width="20.1663" height="22.0177" filterUnits="userSpaceOnUse" color-interpolation-filters="sRGB">
<feFlood flood-opacity="0" result="BackgroundImageFix"/>
<feBlend mode="normal" in="SourceGraphic" in2="BackgroundImageFix" result="shape"/>
<feGaussianBlur stdDeviation="0.730621" result="effect1_foregroundBlur_1_15167"/>
</filter>
</defs>
</svg>
